# xmcd
# Copyright (C) 1995-1998 Ti Kan
#
# Track frame offsets:
#       150
#       16143
#       36469
#       47152
#       65979
#       89683
#       111673
#       128994
#       149149
#       153446
#
# Disc length: 2326 seconds
#
# Revision: 0
# Processed by: cddbd v1.5.1PL2 Copyright (c) Steve Scherf et al.
# Submitted via: CD-Transfer v1.0
#
DISCID=a009140a
DTITLE=Dzieci Czu³e Przytulanki - 
DYEAR=1900
DGENRE=
TTITLE0=Ciao
TTITLE1=Bauba Da Ba
TTITLE2=You Cant Catch Mi
TTITLE3=Giggle
TTITLE4=Lets All Clap Hands
TTITLE5=Party Time
TTITLE6=Tease Me
TTITLE7=Jingle Bells
TTITLE8=Church Bells Ring
TTITLE9=Ding
EXTD=
EXTT0=
EXTT1=
EXTT2=
EXTT3=
EXTT4=
EXTT5=
EXTT6=
EXTT7=
EXTT8=
EXTT9=
PLAYORDER=
